<?xml version="1.0" encoding="UTF-8" standalone="no"?><svg xmlns="http://www.w3.org/2000/svg" version="1.1" x="0" y="0" viewBox="0 0 120 120" enable-background="new 0 0 120 120" xml:space="preserve"><polygon fill-rule="evenodd" clip-rule="evenodd" fill="#FFD600" points="100 60 120 40 120 0 80 0 60 20 40 0 0 0 0 40 20 60 0 80 0 120 40 120 60 100 80 120 120 120 120 80 "/><polygon fill-rule="evenodd" clip-rule="evenodd" fill="#FFB400" points="0 80 0 120 40 120 60 100 20 60 "/><polygon fill-rule="evenodd" clip-rule="evenodd" fill="#FFB400" points="40 40 120 120 120 80 100 60 120 40 80 40 80 0 60 20 40 0 "/></svg>